# xmcd CD database file
#
# Track frame offsets:
#	150
#	12685
#	23940
#	35605
#	48607
#	60352
#	72462
#	84615
#	97732
#	110067
#	122347
#	133500
#	145777
#	159892
#	173434
#	185047
#	198034
#	208155
#	223947
#	236420
#	249755
#	262445
#	275282
#	286835
#
# Disc length: 3985 seconds
#
# Revision: 0
# Processed by: cddbd v1.5.1PL0 Copyright (c) Steve Scherf et al.
# Submitted via: CDex 1.51
#
DISCID=5c0f8f18
DTITLE=Cliff Jackson -  1930-1945
DYEAR=1900
DGENRE=Jazz
TTITLE0=01. Hose Feathers 
TTITLE1=02. Torrid Rhythm 
TTITLE2=03. Ring Around The Moon 
TTITLE3=04. We'll Be Married In June 
TTITLE4=05. She's Just The Baby For Me 
TTITLE5=06. Soubrette 
TTITLE6=07. No-One But Betty Brown 
TTITLE7=08. Desert Blues 
TTITLE8=09. Because I'm Lonesome 
TTITLE9=10. Apart From You 
TTITLE10=11. Waitin' Thru' the Night 
TTITLE11=12. The Terror 
TTITLE12=13. Quiet Please 
TTITLE13=14. Squeeze Me 
TTITLE14=15. If I Could Be With You (One Hour Tonight) 
TTITLE15=16. Weary Blues 
TTITLE16=17. Royal Garden Blues 
TTITLE17=18. It Had To Be You 
TTITLE18=19. Limehouse Blues 
TTITLE19=20. Who 
TTITLE20=21. You Took Advantage Of Me 
TTITLE21=22. Tea For Two 
TTITLE22=23. Memphis Blues 
TTITLE23=24. Sweet Lorraine 
EXTD=
EXTT0=
EXTT1=
EXTT2=
EXTT3=
EXTT4=
EXTT5=
EXTT6=
EXTT7=
EXTT8=
EXTT9=
EXTT10=
EXTT11=
EXTT12=
EXTT13=
EXTT14=
EXTT15=
EXTT16=
EXTT17=
EXTT18=
EXTT19=
EXTT20=
EXTT21=
EXTT22=
EXTT23=
PLAYORDER=
